<svg width="54" height="54" viewBox="0 0 54 54" fill="none" xmlns="http://www.w3.org/2000/svg">
<circle cx="27.0269" cy="27.4224" r="25.5" fill="#7832E9" stroke="#CEB5F6" stroke-width="2"/>
<path d="M24.7417 40.4224V25.2876H21.6655V22.4399H24.7417V20.4888C24.7417 18.7778 24.9468 17.5005 25.3569 16.6567C25.7788 15.8013 26.3765 15.2329 27.1499 14.9517C27.9233 14.6587 28.8374 14.5122 29.8921 14.5122C30.3843 14.5122 30.9585 14.606 31.6147 14.7935C32.271 14.981 32.7983 15.186 33.1968 15.4087L32.2124 18.0103C31.9194 17.8579 31.603 17.7349 31.2632 17.6411C30.9351 17.5474 30.6362 17.5005 30.3667 17.5005C29.6167 17.5005 29.1362 17.6763 28.9253 18.0278C28.7144 18.3677 28.6147 19.1353 28.6265 20.3306L28.644 22.4399H32.4937V25.2876H28.644V40.4224H24.7417Z" fill="#CEB5F6"/>
</svg>
