<svg width="54" height="54" viewBox="0 0 54 54" fill="none" xmlns="http://www.w3.org/2000/svg">
<rect x="0.566895" y="0.922363" width="53.0001" height="53.0001" rx="15" fill="#7832E9"/>
<path d="M27.0669 15.7624C24.7608 15.7624 22.5064 16.4463 20.589 17.7275C18.6715 19.0087 17.177 20.8298 16.2945 22.9603C15.412 25.0909 15.181 27.4354 15.631 29.6972C16.0809 31.959 17.1914 34.0366 18.822 35.6673C20.4527 37.298 22.5303 38.4085 24.7922 38.8584C27.054 39.3083 29.3984 39.0774 31.529 38.1949C33.6596 37.3123 35.4806 35.8179 36.7618 33.9004C38.0431 31.9829 38.7269 29.7286 38.7269 27.4224C38.7234 24.3311 37.4938 21.3674 35.3079 19.1814C33.122 16.9955 30.1583 15.7659 27.0669 15.7624ZM27.0669 36.9624C25.1801 36.9624 23.3356 36.4029 21.7668 35.3547C20.1979 34.3064 18.9752 32.8164 18.2531 31.0732C17.531 29.33 17.3421 27.4118 17.7102 25.5613C18.0783 23.7107 18.9869 22.0108 20.3211 20.6766C21.6553 19.3424 23.3552 18.4338 25.2057 18.0657C27.0563 17.6976 28.9745 17.8866 30.7177 18.6086C32.4609 19.3307 33.9509 20.5534 34.9991 22.1223C36.0474 23.6911 36.6069 25.5356 36.6069 27.4224C36.6069 29.9526 35.6018 32.3791 33.8127 34.1682C32.0236 35.9573 29.5971 36.9624 27.0669 36.9624ZM39.7869 0.922363H14.3469C10.6935 0.926563 7.191 2.37976 4.6076 4.96316C2.0243 7.54646 0.571095 11.049 0.566895 14.7024V40.1424C0.571095 43.7958 2.0243 47.2984 4.6076 49.8817C7.191 52.4651 10.6935 53.9182 14.3469 53.9224H39.7869C43.4403 53.9182 46.9428 52.4651 49.5262 49.8817C52.1095 47.2984 53.5627 43.7958 53.5669 40.1424V14.7024C53.5627 11.049 52.1095 7.54646 49.5262 4.96316C46.9428 2.37976 43.4403 0.926563 39.7869 0.922363ZM51.4469 40.1424C51.4434 43.2338 50.2138 46.1975 48.0279 48.3834C45.842 50.5693 42.8783 51.7989 39.7869 51.8024H14.3469C11.2556 51.7989 8.2918 50.5693 6.1059 48.3834C3.92 46.1975 2.6904 43.2338 2.6869 40.1424V14.7024C2.6904 11.6111 3.92 8.64736 6.1059 6.46136C8.2918 4.27546 11.2556 3.04586 14.3469 3.04236H39.7869C42.8783 3.04586 45.842 4.27546 48.0279 6.46136C50.2138 8.64736 51.4434 11.6111 51.4469 14.7024V40.1424ZM42.9669 13.6424C42.9669 14.0617 42.8426 14.4716 42.6096 14.8202C42.3767 15.1689 42.0456 15.4406 41.6582 15.6011C41.2708 15.7615 40.8446 15.8035 40.4333 15.7217C40.0221 15.6399 39.6443 15.438 39.3478 15.1415C39.0513 14.845 38.8494 14.4673 38.7676 14.056C38.6858 13.6448 38.7278 13.2185 38.8883 12.8311C39.0487 12.4438 39.3205 12.1127 39.6691 11.8797C40.0177 11.6468 40.4276 11.5224 40.8469 11.5224C41.4092 11.5224 41.9484 11.7458 42.346 12.1434C42.7435 12.5409 42.9669 13.0802 42.9669 13.6424Z" fill="#CEB5F6"/>
</svg>
