<svg width="54" height="54" viewBox="0 0 54 54" fill="none" xmlns="http://www.w3.org/2000/svg">
<circle cx="26.9731" cy="27.4224" r="25.5" fill="#7832E9" stroke="#CEB5F6" stroke-width="2"/>
<path d="M41.4107 32.8884L33.7318 29.8592C33.4342 29.7457 33.1091 29.6993 32.7859 29.7243C32.4628 29.7494 32.1519 29.845 31.8812 30.0026C31.8596 30.0147 31.839 30.0281 31.8194 30.0427L27.7865 33.0733C27.6968 33.1216 27.5949 33.1496 27.4899 33.1548C27.385 33.1601 27.2802 33.1424 27.1848 33.1034C24.5439 31.9795 21.8103 29.5883 20.5354 27.2874C20.4903 27.204 20.4693 27.112 20.4744 27.0197C20.4796 26.9274 20.5105 26.8376 20.5646 26.7584L24.0121 23.1444C24.0284 23.1272 24.043 23.1085 24.0577 23.0899C24.2359 22.8516 24.3441 22.578 24.3725 22.2937C24.4008 22.0094 24.3486 21.7234 24.2203 21.4613L20.7777 14.7035C20.6115 14.3612 20.3238 14.0757 19.9579 13.8898C19.5919 13.704 19.1674 13.6278 18.7482 13.6727C16.7018 13.9106 14.8235 14.797 13.4643 16.1665C12.1051 17.5359 11.3578 19.2948 11.3621 21.1144C11.3621 32.1816 21.5745 41.1845 34.1286 41.1845C36.1928 41.1883 38.1879 40.5295 39.7413 39.3313C41.2948 38.133 42.3003 36.4772 42.5701 34.6732C42.6207 34.3053 42.5352 33.9328 42.3263 33.6112C42.1174 33.2896 41.7962 33.0361 41.4107 32.8884ZM41.2838 34.5298C41.0542 36.0577 40.2012 37.4594 38.8843 38.4731C37.5674 39.4868 35.8769 40.043 34.1286 40.0376C22.2933 40.0376 12.663 31.548 12.663 21.1144C12.657 19.5732 13.2879 18.0829 14.4377 16.922C15.5876 15.7611 17.1777 15.0091 18.9108 14.8067C18.9368 14.8053 18.9629 14.8053 18.9889 14.8067C19.1172 14.8077 19.2423 14.8421 19.3485 14.9056C19.4547 14.9691 19.5372 15.0589 19.5857 15.1636L23.0185 21.9215C23.0586 22.0041 23.0761 22.0938 23.0696 22.1835C23.0631 22.2731 23.0328 22.3602 22.9811 22.4376L19.5353 26.0502C19.519 26.0689 19.5027 26.0861 19.4881 26.1061C19.3045 26.3536 19.1964 26.6387 19.1742 26.9337C19.152 27.2288 19.2164 27.5239 19.3613 27.7906C20.7744 30.3409 23.6885 32.8913 26.614 34.137C26.9186 34.2639 27.2553 34.3191 27.5913 34.2972C27.9273 34.2754 28.2511 34.1772 28.5313 34.0123L28.5915 33.9722L32.6293 30.9445C32.7157 30.8979 32.8133 30.8702 32.9143 30.8634C33.0152 30.8567 33.1165 30.8712 33.2098 30.9058L40.887 33.9392C41.0166 33.9867 41.1252 34.0699 41.1968 34.1764C41.2683 34.2828 41.2988 34.4068 41.2838 34.5298Z" fill="#CEB5F6"/>
</svg>
